<svg xmlns="http://www.w3.org/2000/svg" width="32" height="32" viewBox="0 0 32 32">
  <path id="arrows-rotate" d="M45.867,16a2.133,2.133,0,0,0-2.133,2.133v3.021a15.979,15.979,0,0,0-26.9,5.726,2.667,2.667,0,1,0,5.052,1.708A10.666,10.666,0,0,1,40.529,25.6h-3.2a2.133,2.133,0,0,0,0,4.266h8.534A2.132,2.132,0,0,0,48,27.734v-9.6A2.133,2.133,0,0,0,45.867,16ZM45.49,33.74a2.662,2.662,0,0,0-3.38,1.675A10.666,10.666,0,0,1,23.471,38.4h3.2a2.133,2.133,0,0,0,0-4.266H18.133A2.132,2.132,0,0,0,16,36.266v9.6a2.133,2.133,0,0,0,4.266,0V42.846a15.979,15.979,0,0,0,26.9-5.728A2.668,2.668,0,0,0,45.49,33.74Z" transform="translate(-16 -16)" fill="#fff"/>
</svg>
