<svg xmlns="http://www.w3.org/2000/svg" width="30.625" height="35" viewBox="0 0 30.625 35">
  <path id="calendar-day" d="M26.25,4.375H23.516V1.641a1.641,1.641,0,0,0-3.281,0V4.375H10.391V1.641a1.641,1.641,0,0,0-3.281,0V4.375H4.375A4.375,4.375,0,0,0,0,8.75V30.625A4.375,4.375,0,0,0,4.375,35H26.25a4.375,4.375,0,0,0,4.375-4.375V8.75A4.375,4.375,0,0,0,26.25,4.375Zm1.094,26.25a1.1,1.1,0,0,1-1.094,1.094H4.375a1.1,1.1,0,0,1-1.094-1.094v-17.5H27.344ZM7.656,26.25h6.562a1.1,1.1,0,0,0,1.094-1.094V18.594A1.1,1.1,0,0,0,14.219,17.5H7.656a1.1,1.1,0,0,0-1.094,1.094v6.563A1.1,1.1,0,0,0,7.656,26.25Z" fill="#fff"/>
</svg>
