<svg xmlns="http://www.w3.org/2000/svg" width="24.887" height="34" viewBox="0 0 24.887 34">
  <path id="euro-sign" d="M48.814,61.924a3.036,3.036,0,0,1-2.306,3.621,17.3,17.3,0,0,1-3.72.408A16.98,16.98,0,0,1,26.949,55.022h-.521A2.427,2.427,0,0,1,24,52.594a2.393,2.393,0,0,1,1.885-2.319c-.034-.439-.064-.878-.064-1.323s.031-.885.064-1.323A2.393,2.393,0,0,1,24,45.31a2.427,2.427,0,0,1,2.428-2.428h.521A16.981,16.981,0,0,1,46.509,32.359,3.036,3.036,0,0,1,45.2,38.286a10.869,10.869,0,0,0-10.1,2.94,11.027,11.027,0,0,0-1.362,1.655h9.694a2.428,2.428,0,0,1,0,4.856H32.009a10.959,10.959,0,0,0-.119,1.214,10.959,10.959,0,0,0,.119,1.214H43.424a2.428,2.428,0,0,1,0,4.856H33.73a11.028,11.028,0,0,0,1.361,1.655,10.874,10.874,0,0,0,10.1,2.94A3.045,3.045,0,0,1,48.814,61.924Z" transform="translate(-24 -31.952)" fill="#fff"/>
</svg>
