<svg xmlns="http://www.w3.org/2000/svg" width="43" height="25.8" viewBox="0 0 43 25.8">
  <path id="handshake" d="M0,85.493H4.3a2.143,2.143,0,0,0,2.15-2.149V68.315H0ZM3.225,81.2A1.075,1.075,0,1,1,2.15,82.278,1.077,1.077,0,0,1,3.225,81.2ZM23.432,64a2.136,2.136,0,0,0-1.442.56l-6.613,6.048c-.008.008-.008.025-.017.025a2.667,2.667,0,0,0-.143,3.761,2.8,2.8,0,0,0,3.771.185c.008-.008.017-.008.025-.017l5.367-4.911a1.076,1.076,0,1,1,1.453,1.587l-1.755,1.6,9.784,7.934a5.169,5.169,0,0,1,.529.52v-13A14.685,14.685,0,0,0,24.01,64Zm-.949,10.31-2.016,1.847a4.838,4.838,0,1,1-6.542-7.128L19.426,64h-.444A14.683,14.683,0,0,0,8.612,68.287L8.6,68.3V83.335H9.826l6.08,5.5a4.3,4.3,0,0,0,6.047-.621l.017-.017,1.2,1.041a2.506,2.506,0,0,0,3.519-.361L28.8,86.282l.361.3a2.156,2.156,0,0,0,3.024-.319l.638-.789a2.155,2.155,0,0,0-.317-3.028ZM36.55,68.315V83.352A2.149,2.149,0,0,0,38.7,85.5H43V68.315Zm3.225,15.037a1.075,1.075,0,1,1,1.075-1.074A1.082,1.082,0,0,1,39.775,83.352Z" transform="translate(0 -64)" fill="#fff"/>
</svg>
