<svg xmlns="http://www.w3.org/2000/svg" width="40" height="35.556" viewBox="0 0 40 35.556">
  <path id="hand-holding-droplet" d="M20,17.778a6.6,6.6,0,0,0,6.667-6.528c0-2.778-3.967-8.385-5.781-10.807a1.107,1.107,0,0,0-1.771,0C17.3,2.865,13.331,8.472,13.331,11.25A6.6,6.6,0,0,0,20,17.778Zm19.46,5.577a2.771,2.771,0,0,0-3.884-.588L27.263,28.89H18.888a1.111,1.111,0,1,1,0-2.222h5.434a2.311,2.311,0,0,0,2.317-1.848,2.226,2.226,0,0,0-2.2-2.6H13.332a8.173,8.173,0,0,0-5.147,1.823L4.956,26.668H1.111A1.119,1.119,0,0,0,0,27.779v6.665a1.119,1.119,0,0,0,1.111,1.111h24.1a7.276,7.276,0,0,0,4.285-1.408l9.379-6.911A2.775,2.775,0,0,0,39.458,23.355Z" fill="#fff"/>
</svg>
