<svg xmlns="http://www.w3.org/2000/svg" width="19" height="19" viewBox="0 0 19 19">
  <path id="instagram" d="M9.5,0C6.922,0,6.6.012,5.585.057A7,7,0,0,0,3.278.5a4.651,4.651,0,0,0-1.683,1.1A4.663,4.663,0,0,0,.5,3.278a6.959,6.959,0,0,0-.442,2.3C.012,6.6,0,6.92,0,9.5s.012,2.9.057,3.915A7,7,0,0,0,.5,15.723,4.864,4.864,0,0,0,3.276,18.5a6.974,6.974,0,0,0,2.306.442C6.6,18.988,6.92,19,9.5,19s2.9-.012,3.916-.057a7.013,7.013,0,0,0,2.307-.442A4.864,4.864,0,0,0,18.5,15.723a7.029,7.029,0,0,0,.442-2.306C18.988,12.4,19,12.08,19,9.5s-.012-2.9-.057-3.918a7.022,7.022,0,0,0-.442-2.3,4.662,4.662,0,0,0-1.1-1.683A4.644,4.644,0,0,0,15.723.5,6.989,6.989,0,0,0,13.415.057C12.4.012,12.079,0,9.5,0h0ZM8.649,1.712H9.5c2.537,0,2.837.008,3.838.055a5.265,5.265,0,0,1,1.765.327A2.948,2.948,0,0,1,16.2,2.8a2.935,2.935,0,0,1,.71,1.093,5.218,5.218,0,0,1,.327,1.763c.046,1,.056,1.3.056,3.837s-.01,2.837-.056,3.838a5.256,5.256,0,0,1-.327,1.763,3.149,3.149,0,0,1-1.8,1.8,5.226,5.226,0,0,1-1.763.328c-1,.045-1.3.056-3.838.056s-2.838-.011-3.839-.056A5.247,5.247,0,0,1,3.9,16.9a2.943,2.943,0,0,1-1.092-.71A2.945,2.945,0,0,1,2.094,15.1a5.249,5.249,0,0,1-.327-1.763c-.045-1-.055-1.3-.055-3.839s.01-2.836.055-3.837a5.256,5.256,0,0,1,.328-1.765A2.948,2.948,0,0,1,2.806,2.8,2.935,2.935,0,0,1,3.9,2.091a5.247,5.247,0,0,1,1.763-.328c.876-.04,1.216-.052,2.987-.053v0Zm5.923,1.577a1.14,1.14,0,1,0,1.14,1.14,1.14,1.14,0,0,0-1.14-1.14ZM9.5,4.622A4.879,4.879,0,1,0,14.381,9.5,4.879,4.879,0,0,0,9.5,4.622Zm0,1.711A3.167,3.167,0,1,1,6.334,9.5,3.167,3.167,0,0,1,9.5,6.333Z" fill="#fff"/>
</svg>
