<svg xmlns="http://www.w3.org/2000/svg" width="34" height="34" viewBox="0 0 34 34">
  <path id="microphone-stand" d="M19.225,4.016a7.608,7.608,0,0,0-2.192,5.761l7.189,7.189a7.609,7.609,0,0,0,5.761-2.192l.141-.149L19.374,3.875ZM.446,28.1A1.783,1.783,0,0,0,.513,30.53l2.955,2.947a1.775,1.775,0,0,0,2.432.075l8.974-7.928v7.313A1.059,1.059,0,0,0,15.937,34h2.125a1.059,1.059,0,0,0,1.063-1.063V21.88l3.719-3.287-7.438-7.438ZM31.777,2.223a7.621,7.621,0,0,0-10.759,0l-.141.149,10.751,10.75.149-.141A7.621,7.621,0,0,0,31.777,2.223Z" transform="translate(0)" fill="#fff"/>
</svg>
