<svg xmlns="http://www.w3.org/2000/svg" width="36.717" height="32.638" viewBox="0 0 36.717 32.638">
  <path id="people-arrows-left-right" d="M6.12,19.384a2.812,2.812,0,0,1,.87-2.04l4.6-4.34a2.752,2.752,0,0,1,.358-.228A4.074,4.074,0,0,0,8.159,10.2H4.08A4.08,4.08,0,0,0,0,14.279V20.4a2.04,2.04,0,0,0,2.04,2.04V30.6a2.04,2.04,0,0,0,2.04,2.04h4.08A2.04,2.04,0,0,0,10.2,30.6V24.454l-3.21-3.03A2.812,2.812,0,0,1,6.12,19.384ZM30.6,8.159a4.08,4.08,0,1,0-4.08-4.08A4.077,4.077,0,0,0,30.6,8.159Zm-24.478,0A4.08,4.08,0,1,0,2.04,4.08,4.077,4.077,0,0,0,6.12,8.159ZM28.328,18.827l-4.6-4.339a.766.766,0,0,0-1.292.557v2.294H14.279V15.045a.766.766,0,0,0-1.292-.557l-4.6,4.339a.79.79,0,0,0,0,1.114l4.6,4.339a.766.766,0,0,0,1.292-.557v-2.3h8.159v2.3a.766.766,0,0,0,1.292.557l4.6-4.339A.79.79,0,0,0,28.328,18.827ZM32.638,10.2h-4.08a4.074,4.074,0,0,0-3.785,2.576,2.74,2.74,0,0,1,.358.229l4.6,4.339a2.829,2.829,0,0,1,0,4.081l-3.21,3.03V30.6a2.04,2.04,0,0,0,2.04,2.04h4.08a2.04,2.04,0,0,0,2.04-2.04V22.438a2.04,2.04,0,0,0,2.04-2.04v-6.12A4.08,4.08,0,0,0,32.638,10.2Z" fill="#fff"/>
</svg>
