<svg xmlns="http://www.w3.org/2000/svg" width="34.286" height="30" viewBox="0 0 34.286 30">
  <path id="thumbs-up" d="M8.571,59.857v-15a2.143,2.143,0,0,0-2.143-2.143H2.143A2.143,2.143,0,0,0,0,44.857v15A2.143,2.143,0,0,0,2.143,62H6.429A2.143,2.143,0,0,0,8.571,59.857ZM34.286,44.865a3.213,3.213,0,0,0-3.214-3.213H21.26a16.347,16.347,0,0,0,2.312-6.43A3.237,3.237,0,0,0,20.259,32c-4.227,0-1.765,5.1-7.247,9.483l-1.091.872a3.19,3.19,0,0,0-1.192,2.495l-.014.014v10.71A3.212,3.212,0,0,0,12,58.145l2.286,1.714A10.714,10.714,0,0,0,20.713,62h3.93a3.194,3.194,0,0,0,3.131-3.919,3.178,3.178,0,0,0,1.748-4.708,3.2,3.2,0,0,0,1.769-5.317A3.2,3.2,0,0,0,34.286,44.865Z" transform="translate(0 -32)" fill="#fff"/>
</svg>
