<svg xmlns="http://www.w3.org/2000/svg" width="18.46" height="15" viewBox="0 0 18.46 15">
  <path id="twitter" d="M5.8,17A10.7,10.7,0,0,0,16.576,6.23c0-.162,0-.325-.007-.487A7.713,7.713,0,0,0,18.46,3.779a7.682,7.682,0,0,1-2.179.6,3.809,3.809,0,0,0,1.67-2.1,7.538,7.538,0,0,1-2.408.915A3.791,3.791,0,0,0,9.086,6.65,10.759,10.759,0,0,1,1.278,2.694,3.8,3.8,0,0,0,2.453,7.749,3.834,3.834,0,0,1,.738,7.279v.052a3.794,3.794,0,0,0,3.037,3.713,3.7,3.7,0,0,1-1,.133,3.727,3.727,0,0,1-.708-.066,3.788,3.788,0,0,0,3.539,2.627A7.6,7.6,0,0,1,.9,15.361a7.292,7.292,0,0,1-.9-.052A10.781,10.781,0,0,0,5.8,17Z" transform="translate(0 -1.999)" fill="#fff"/>
</svg>
